<mxfile host="app.diagrams.net" modified="2023-05-04T16:54:02.659Z" agent="Mozilla/5.0 (Windows NT 10.0; Win64; x64) AppleWebKit/537.36 (KHTML, like Gecko) Chrome/112.0.0.0 Safari/537.36" etag="pcKzE1vl5pLS-fEEvWUF" version="21.2.7" type="device">
  <diagram name="Page-1" id="HS4E_GCNsPx-jeZV9mSw">
    <mxGraphModel dx="1033" dy="526" grid="1" gridSize="10" guides="1" tooltips="1" connect="1" arrows="1" fold="1" page="1" pageScale="1" pageWidth="850" pageHeight="1100" math="0" shadow="0">
      <root>
        <mxCell id="0" />
        <mxCell id="1" parent="0" />
        <mxCell id="JamvP7rq8iV6pumIK8E1-3" value="&amp;lt;&amp;lt;file&amp;gt;&amp;gt;&lt;br&gt;accounting system" style="shape=module;align=left;spacingLeft=20;align=center;verticalAlign=top;whiteSpace=wrap;html=1;fontSize=16;" vertex="1" parent="1">
          <mxGeometry x="510" y="60" width="150" height="70" as="geometry" />
        </mxCell>
        <mxCell id="JamvP7rq8iV6pumIK8E1-4" value="&amp;lt;&amp;lt;file&amp;gt;&amp;gt;&lt;br&gt;information&lt;br&gt;database" style="shape=module;align=left;spacingLeft=20;align=center;verticalAlign=top;whiteSpace=wrap;html=1;fontSize=16;" vertex="1" parent="1">
          <mxGeometry x="515" y="210" width="140" height="70" as="geometry" />
        </mxCell>
        <mxCell id="JamvP7rq8iV6pumIK8E1-5" value="&amp;lt;&amp;lt;file&amp;gt;&amp;gt;&lt;br&gt;security system" style="shape=module;align=left;spacingLeft=20;align=center;verticalAlign=top;whiteSpace=wrap;html=1;fontSize=16;" vertex="1" parent="1">
          <mxGeometry x="490" y="350" width="170" height="60" as="geometry" />
        </mxCell>
        <mxCell id="JamvP7rq8iV6pumIK8E1-6" value="&amp;lt;&amp;lt;file&amp;gt;&amp;gt;&lt;br&gt;backup" style="shape=module;align=left;spacingLeft=20;align=center;verticalAlign=top;whiteSpace=wrap;html=1;fontSize=16;" vertex="1" parent="1">
          <mxGeometry x="280" y="220" width="100" height="50" as="geometry" />
        </mxCell>
        <mxCell id="JamvP7rq8iV6pumIK8E1-7" value="&amp;lt;&amp;lt;file&amp;gt;&amp;gt;&lt;br&gt;maintenance&lt;br&gt;system" style="shape=module;align=left;spacingLeft=20;align=center;verticalAlign=top;whiteSpace=wrap;html=1;fontSize=16;" vertex="1" parent="1">
          <mxGeometry x="230" y="330" width="120" height="70" as="geometry" />
        </mxCell>
        <mxCell id="JamvP7rq8iV6pumIK8E1-8" value="" style="rounded=0;orthogonalLoop=1;jettySize=auto;html=1;endArrow=none;endFill=0;sketch=0;sourcePerimeterSpacing=0;targetPerimeterSpacing=0;fontSize=12;startSize=8;endSize=8;curved=1;exitX=1;exitY=0.75;exitDx=0;exitDy=0;" edge="1" parent="1" source="JamvP7rq8iV6pumIK8E1-10">
          <mxGeometry relative="1" as="geometry">
            <mxPoint x="400" y="245" as="sourcePoint" />
            <mxPoint x="450" y="245" as="targetPoint" />
          </mxGeometry>
        </mxCell>
        <mxCell id="JamvP7rq8iV6pumIK8E1-11" value="" style="rounded=0;orthogonalLoop=1;jettySize=auto;html=1;endArrow=none;endFill=0;sketch=0;sourcePerimeterSpacing=0;targetPerimeterSpacing=0;fontSize=12;startSize=8;endSize=8;curved=1;" edge="1" parent="1" source="JamvP7rq8iV6pumIK8E1-4" target="JamvP7rq8iV6pumIK8E1-10">
          <mxGeometry relative="1" as="geometry">
            <mxPoint x="390" y="248" as="sourcePoint" />
            <mxPoint x="450" y="245" as="targetPoint" />
          </mxGeometry>
        </mxCell>
        <mxCell id="JamvP7rq8iV6pumIK8E1-12" value="" style="rounded=0;orthogonalLoop=1;jettySize=auto;html=1;endArrow=halfCircle;endFill=0;endSize=6;strokeWidth=1;sketch=0;fontSize=12;curved=1;exitX=1;exitY=0.5;exitDx=0;exitDy=0;" edge="1" parent="1" source="JamvP7rq8iV6pumIK8E1-6" target="JamvP7rq8iV6pumIK8E1-10">
          <mxGeometry relative="1" as="geometry">
            <mxPoint x="380" y="245" as="sourcePoint" />
            <mxPoint x="450" y="260" as="targetPoint" />
          </mxGeometry>
        </mxCell>
        <mxCell id="JamvP7rq8iV6pumIK8E1-10" value="" style="ellipse;whiteSpace=wrap;html=1;align=center;aspect=fixed;resizable=0;points=[];outlineConnect=0;sketch=0;fontSize=16;" vertex="1" parent="1">
          <mxGeometry x="440" y="240" width="10" height="10" as="geometry" />
        </mxCell>
        <mxCell id="JamvP7rq8iV6pumIK8E1-13" value="" style="rounded=0;orthogonalLoop=1;jettySize=auto;html=1;endArrow=none;endFill=0;sketch=0;sourcePerimeterSpacing=0;targetPerimeterSpacing=0;fontSize=12;startSize=8;endSize=8;curved=1;exitX=0.5;exitY=0;exitDx=0;exitDy=0;" edge="1" target="JamvP7rq8iV6pumIK8E1-15" parent="1" source="JamvP7rq8iV6pumIK8E1-4">
          <mxGeometry relative="1" as="geometry">
            <mxPoint x="565" y="175" as="sourcePoint" />
          </mxGeometry>
        </mxCell>
        <mxCell id="JamvP7rq8iV6pumIK8E1-14" value="" style="rounded=0;orthogonalLoop=1;jettySize=auto;html=1;endArrow=halfCircle;endFill=0;entryX=0.5;entryY=0.5;endSize=6;strokeWidth=1;sketch=0;fontSize=12;curved=1;exitX=0.5;exitY=1;exitDx=0;exitDy=0;" edge="1" target="JamvP7rq8iV6pumIK8E1-15" parent="1" source="JamvP7rq8iV6pumIK8E1-3">
          <mxGeometry relative="1" as="geometry">
            <mxPoint x="620" y="170" as="sourcePoint" />
          </mxGeometry>
        </mxCell>
        <mxCell id="JamvP7rq8iV6pumIK8E1-15" value="" style="ellipse;whiteSpace=wrap;html=1;align=center;aspect=fixed;resizable=0;points=[];outlineConnect=0;sketch=0;fontSize=16;" vertex="1" parent="1">
          <mxGeometry x="580" y="170" width="10" height="10" as="geometry" />
        </mxCell>
        <mxCell id="JamvP7rq8iV6pumIK8E1-16" value="Use" style="endArrow=open;endSize=12;dashed=1;html=1;rounded=0;fontSize=12;curved=1;exitX=1;exitY=0.75;exitDx=0;exitDy=0;" edge="1" parent="1" source="JamvP7rq8iV6pumIK8E1-6">
          <mxGeometry width="160" relative="1" as="geometry">
            <mxPoint x="390" y="260" as="sourcePoint" />
            <mxPoint x="530" y="258" as="targetPoint" />
          </mxGeometry>
        </mxCell>
        <mxCell id="JamvP7rq8iV6pumIK8E1-18" value="Use" style="endArrow=open;endSize=12;dashed=1;html=1;rounded=0;fontSize=12;curved=1;entryX=0;entryY=1;entryDx=10;entryDy=0;entryPerimeter=0;exitX=1;exitY=0.5;exitDx=0;exitDy=0;" edge="1" parent="1" source="JamvP7rq8iV6pumIK8E1-7" target="JamvP7rq8iV6pumIK8E1-4">
          <mxGeometry width="160" relative="1" as="geometry">
            <mxPoint x="380" y="360" as="sourcePoint" />
            <mxPoint x="540" y="359.5" as="targetPoint" />
          </mxGeometry>
        </mxCell>
        <mxCell id="JamvP7rq8iV6pumIK8E1-19" value="Use" style="endArrow=open;endSize=12;dashed=1;html=1;rounded=0;fontSize=12;curved=1;entryX=0.5;entryY=1;entryDx=0;entryDy=0;exitX=0.563;exitY=-0.017;exitDx=0;exitDy=0;exitPerimeter=0;" edge="1" parent="1" source="JamvP7rq8iV6pumIK8E1-5" target="JamvP7rq8iV6pumIK8E1-4">
          <mxGeometry width="160" relative="1" as="geometry">
            <mxPoint x="585" y="340" as="sourcePoint" />
            <mxPoint x="680" y="320" as="targetPoint" />
          </mxGeometry>
        </mxCell>
      </root>
    </mxGraphModel>
  </diagram>
</mxfile>
